<?xml version="1.0" encoding="UTF-8" standalone="no"?>
<svg
   xmlns:dc="http://purl.org/dc/elements/1.1/"
   xmlns:cc="http://creativecommons.org/ns#"
   xmlns:rdf="http://www.w3.org/1999/02/22-rdf-syntax-ns#"
   xmlns:svg="http://www.w3.org/2000/svg"
   xmlns="http://www.w3.org/2000/svg"
   xmlns:sodipodi="http://sodipodi.sourceforge.net/DTD/sodipodi-0.dtd"
   xmlns:inkscape="http://www.inkscape.org/namespaces/inkscape"
   inkscape:version="1.0 (4035a4fb49, 2020-05-01)"
   sodipodi:docname="globe-solid.svg"
   id="svg4"
   version="1.1"
   viewBox="0 0 496 512"
   role="img"
   class="svg-inline--fa fa-globe fa-w-16"
   data-icon="globe"
   data-prefix="fas"
   focusable="false"
   aria-hidden="true">
  <metadata
     id="metadata10">
    <rdf:RDF>
      <cc:Work
         rdf:about="">
        <dc:format>image/svg+xml</dc:format>
        <dc:type
           rdf:resource="http://purl.org/dc/dcmitype/StillImage" />
      </cc:Work>
    </rdf:RDF>
  </metadata>
  <defs
     id="defs8" />
  <sodipodi:namedview
     inkscape:current-layer="svg4"
     inkscape:window-maximized="1"
     inkscape:window-y="-8"
     inkscape:window-x="-8"
     inkscape:cy="256"
     inkscape:cx="248"
     inkscape:zoom="1.3085938"
     showgrid="false"
     id="namedview6"
     inkscape:window-height="837"
     inkscape:window-width="1600"
     inkscape:pageshadow="2"
     inkscape:pageopacity="0"
     guidetolerance="10"
     gridtolerance="10"
     objecttolerance="10"
     borderopacity="1"
     bordercolor="#666666"
     pagecolor="#ffffff" />
  <path
     id="path2"
     d="M336.5 160C322 70.7 287.8 8 248 8s-74 62.7-88.5 152h177zM152 256c0 22.2 1.2 43.5 3.3 64h185.3c2.1-20.5 3.3-41.8 3.3-64s-1.2-43.5-3.3-64H155.3c-2.1 20.5-3.3 41.8-3.3 64zm324.7-96c-28.6-67.9-86.5-120.4-158-141.6 24.4 33.8 41.2 84.7 50 141.6h108zM177.2 18.4C105.8 39.6 47.8 92.1 19.3 160h108c8.7-56.9 25.5-107.8 49.9-141.6zM487.4 192H372.7c2.1 21 3.3 42.5 3.3 64s-1.2 43-3.3 64h114.6c5.5-20.5 8.6-41.8 8.6-64s-3.1-43.5-8.5-64zM120 256c0-21.5 1.2-43 3.3-64H8.6C3.2 212.5 0 233.8 0 256s3.2 43.5 8.6 64h114.6c-2-21-3.2-42.5-3.2-64zm39.5 96c14.5 89.3 48.7 152 88.5 152s74-62.7 88.5-152h-177zm159.3 141.6c71.4-21.2 129.4-73.7 158-141.6h-108c-8.8 56.9-25.6 107.8-50 141.6zM19.3 352c28.6 67.9 86.5 120.4 158 141.6-24.4-33.8-41.2-84.7-50-141.6h-108z"
     fill="currentColor" />
  <path
     id="path12"
     d="m 155.28654,315.41493 c -3.31113,-28.99062 -3.31113,-89.83924 0,-118.82986 l 0.45821,-4.01194 h 92.27068 92.27067 l 0.49766,5.5403 c 3.35278,37.3262 3.46688,76.49279 0.32503,111.57015 l -0.8727,9.74329 h -92.24567 -92.24567 z"
     style="fill:#ffffff;stroke-width:0.764179" />
  <path
     id="path14"
     d="m 160.50468,156.46567 c 2.94148,-18.38512 9.30089,-44.27822 15.24936,-62.089551 15.32389,-45.883877 36.70535,-75.817289 59.87356,-83.821222 7.18435,-2.4819811 17.57609,-2.4763733 24.78499,0.01337 28.81198,9.950833 54.95547,54.653167 69.72366,119.219333 2.25985,9.88001 5.74435,27.6688 5.74435,29.32561 0,0.33011 -39.57649,0.60021 -87.94777,0.60021 h -87.94777 z"
     style="fill:#ffffff;stroke-width:0.764179" />
  <path
     id="path16"
     d="M 366.56933,145.44924 C 357.67386,95.773024 341.78067,51.952712 321.73915,21.844601 l -1.48244,-2.227041 2.27165,0.55529 c 4.7027,1.149547 17.88326,6.136396 26.83364,10.152474 44.30993,19.882076 83.23411,53.927989 108.93394,95.281546 5.06517,8.15035 15.90402,28.79309 17.00549,32.38716 l 0.52694,1.7194 -53.35299,-0.003 -53.35299,-0.003 -2.55306,-14.25737 z"
     style="fill:#ffffff;stroke-width:0.764179" />
  <path
     id="path18"
     d="m 373.58159,314.65075 c 1.80302,-18.42891 2.34793,-32.04064 2.34793,-58.65075 0,-26.61011 -0.54491,-40.22184 -2.34793,-58.65075 l -0.46728,-4.77612 h 57.00742 57.00742 l 0.76093,2.86568 c 1.66331,6.26405 4.66541,22.49982 5.89933,31.90447 0.90644,6.9087 1.31144,15.52011 1.32976,28.27463 0.032,22.29606 -1.24586,33.87259 -6.09462,55.21194 l -1.95343,8.59702 h -56.9784 -56.97841 z"
     style="fill:#ffffff;stroke-width:0.764179" />
  <path
     id="path20"
     d="m 321.01658,491.25783 c 0.33592,-0.57031 1.87738,-2.92828 3.42545,-5.23992 18.47107,-27.58168 36.48927,-80.22854 43.61137,-127.42687 l 0.95133,-6.30447 h 53.36032 c 37.91992,0 53.36032,0.24042 53.36032,0.83088 0,1.43118 -10.55229,22.06345 -15.4749,30.25716 -16.64396,27.70395 -41.48886,54.57836 -68.08852,73.65049 -16.72569,11.99242 -38.89753,23.85973 -57.42762,30.73768 -11.01261,4.08764 -14.60606,5.00319 -13.71775,3.49505 z"
     style="fill:#ffffff;stroke-width:0.764179" />
  <path
     id="path22"
     d="m 241.50448,503.12287 c -19.77711,-5.04994 -34.93149,-19.51858 -49.93156,-47.67212 -12.97696,-24.35638 -25.26091,-63.86611 -31.06497,-99.91642 l -0.52289,-3.24776 h 87.94777 c 48.37128,0 87.94777,0.27755 87.94777,0.61678 0,0.33922 -0.66162,4.20788 -1.47027,8.59701 -13.92077,75.55845 -41.93755,128.77696 -73.59082,139.78743 -4.67985,1.62786 -15.93772,2.69745 -19.31503,1.83508 z"
     style="fill:#ffffff;stroke-width:0.764179" />
  <path
     id="path24"
     d="M 164.32239,488.80428 C 111.76859,470.20478 64.837404,431.59844 35.544376,382.86944 31.097413,375.47191 20.274627,354.20853 20.274627,352.86917 c 0,-0.32043 23.985672,-0.58107 53.301492,-0.57919 l 53.301491,0.003 2.55306,14.25737 c 8.87894,49.58392 24.8179,93.56646 44.74792,123.47908 1.86161,2.79406 1.30635,2.72502 -9.8562,-1.22557 z"
     style="fill:#ffffff;stroke-width:0.764179" />
  <path
     id="path26"
     d="M 8.1228273,316.56119 C 6.3523381,309.77845 3.4792871,294.6135 2.2231929,285.4209 c -1.89771282,-13.88823 -1.89771282,-44.95356 0,-58.8418 1.2560942,-9.1926 4.1291452,-24.35755 5.8996344,-31.14029 l 0.748022,-2.86568 H 65.878267 122.88569 l -0.46728,4.77612 c -3.25046,33.22338 -3.25901,87.52821 -0.0186,117.68359 l 0.47217,4.39403 H 65.871421 8.8708264 l -0.7480221,-2.86568 z"
     style="fill:#ffffff;stroke-width:0.764179" />
  <path
     id="path28"
     d="m 20.274627,159.13082 c 0,-0.32043 2.416085,-5.52986 5.369078,-11.57652 C 50.331202,97.003268 91.474494,56.441012 142.70543,32.145743 c 9.71694,-4.608064 29.48888,-12.277086 31.65227,-12.277086 1.12711,0 1.12875,0.145996 0.0192,1.719403 -6.26909,8.890236 -16.49125,28.379303 -22.20949,42.343524 -4.82544,11.783927 -11.21349,31.225654 -14.89956,45.346026 -3.08252,11.80833 -8.71936,38.80688 -9.69252,46.42388 l -0.51258,4.01194 H 73.668714 c -29.366748,0 -53.394087,-0.26217 -53.394087,-0.58261 z"
     style="fill:#ffffff;stroke-width:0.764179" />
</svg>
